# xmcd
#
# Track frame offsets:
#	150
#	10190
#	23992
#	33632
#	44807
#	54415
#	65127
#	75607
#	88430
#	102960
#
# Disc length: 1539 seconds
#
# Revision: 2
# Processed by: cddbd v1.5.2PL0 Copyright (c) Steve Scherf et al.
# Submitted via: audiograbber 1.83.01
#
DISCID=8906010a
DTITLE=Various Artist - Country Love Songs  [CD1)
DYEAR=2003
DGENRE=Oldies
TTITLE0=George Hamilton IV - You Are My Sunshine
TTITLE1=John Hartford - Gentle On My Mind
TTITLE2=Skeeter Davis - I Can't Stay Mad At You
TTITLE3=Porter Wagoner and Dolly Parton - Yours Love
TTITLE4=Eddy Arnold - Misty Blue
TTITLE5=Roger Miller - When Two Worlds Collide
TTITLE6=Connie Smith and Nat Stuckey - Young Love
TTITLE7=Jimmy Elledge - Funny How Time Slips Away
TTITLE8=Jim Ed Brown and Helen Cornelius - One Man Woman, One Woman Man
TTITLE9=Eddy Arnold - Then You Can Tell Me Goodbye
EXTD=
EXTT0=
EXTT1=
EXTT2=
EXTT3=
EXTT4=
EXTT5=
EXTT6=
EXTT7=
EXTT8=
EXTT9=
PLAYORDER=
